<svg width="20" height="20" viewBox="0 0 20 20" fill="none" xmlns="http://www.w3.org/2000/svg">
<g clip-path="url(#clip0_0_34)">
<path d="M20 0H0V20H20V0Z" fill="white"/>
<path d="M20 0V20H0V0H20ZM15 16.6847C15.5604 16.6875 16.1236 16.6826 16.684 16.6847V18.3687H18.368V1.63128H1.63128V10C2.19167 10 2.75489 10 3.31529 10C3.3181 9.4396 3.31388 8.87639 3.31529 8.31529C3.87569 8.31388 4.4389 8.3181 5 8.31529C5.00141 7.77246 4.99859 7.22683 5 6.68401H6.55252C6.56588 6.68401 6.59471 6.62213 6.63198 6.65378C6.67206 6.6812 6.67768 6.71846 6.68471 6.76276C6.74659 7.17128 6.6812 7.86809 6.68471 8.31599C7.22753 8.3174 7.77317 8.31529 8.31669 8.31599C8.3181 8.87639 8.31388 9.4396 8.31669 10.0007C8.87709 10.0021 9.4403 10 10.0014 10.0007C10.0021 10.5611 9.9993 11.1243 10.0014 11.6854C10.5618 11.6882 11.125 11.684 11.6861 11.6854C11.6868 12.2282 11.684 12.7739 11.6861 13.3174C12.134 13.3202 12.8308 13.2548 13.2393 13.3174C13.2836 13.3244 13.3209 13.3301 13.3483 13.3701C13.38 13.4081 13.3181 13.4362 13.3181 13.4496V15.0021H11.6868C11.6854 14.4417 11.6882 13.8785 11.6868 13.3181C11.1264 13.3146 10.5632 13.3202 10.0021 13.3181C10.0014 12.7753 10.0042 12.2296 10.0021 11.6861C9.44171 11.6833 8.8785 11.6875 8.3174 11.6861C8.31599 11.1257 8.32021 10.5625 8.3174 10.0014C7.77457 10 7.22894 10.0021 6.68542 10.0014C6.68331 9.44101 6.68893 8.87779 6.68542 8.31669C6.12502 8.31529 5.56181 8.31388 5.00141 8.31669C5 8.87709 5.00211 9.4403 5.00141 10.0014C4.44101 10.0014 3.87779 10.0014 3.31669 10.0014C3.31388 10.5618 3.3188 11.125 3.31669 11.6854H1.63268V15.0014H3.31669C3.3195 14.441 3.31458 13.8778 3.31669 13.3174H4.92195L5.0007 13.3961V15.0014H3.31669C3.31388 15.5618 3.3188 16.125 3.31669 16.6854H1.63268V18.3694H10.0014V16.6854C9.44101 16.6826 8.87779 16.6868 8.31669 16.6854C8.31529 16.125 8.3195 15.5618 8.31669 15.0007C7.77387 14.9993 7.22824 15.0014 6.68471 15.0007C6.68401 14.4403 6.68682 13.8771 6.68471 13.316C6.12431 13.3146 5.5611 13.3174 5.0007 13.316V11.6847H6.68471C6.68612 12.2275 6.68331 12.7732 6.68471 13.316C7.22753 13.3174 7.77317 13.3153 8.31669 13.316C8.3181 13.8764 8.31388 14.4396 8.31669 15.0007C8.87709 15.0021 9.4403 15 10.0014 15.0007C10.0014 15.5611 10.0014 16.1243 10.0014 16.6854C10.5618 16.6882 11.125 16.6833 11.6854 16.6854V18.3694H15.0014V16.6854C14.441 16.6826 13.8778 16.6875 13.3174 16.6854V15.0802L13.3961 15.0014H15.0014V16.6854L15 16.6847Z" fill="#FF5AD1"/>
<path d="M14.9999 5.00031C15.0055 6.10424 15.0055 7.21238 14.9999 8.3163C13.896 8.32193 12.7878 8.32193 11.6839 8.3163C11.6783 7.21238 11.6783 6.10424 11.6839 5.00031C12.7878 4.99469 13.896 4.99469 14.9999 5.00031Z" fill="white"/>
<path d="M11.684 5.00054C11.6784 6.10447 11.6784 7.21261 11.684 8.31653C11.1236 8.31372 10.5604 8.31864 10 8.31653V5.00054C10.5604 4.99843 11.1236 5.00335 11.684 5.00054Z" fill="#FF5AD1"/>
<path d="M11.688 5.00042C11.6909 4.44002 11.6859 3.87681 11.688 3.31641H15.004C15.0061 3.87681 15.0012 4.44002 15.004 5.00042C13.9001 4.99479 12.792 4.99479 11.688 5.00042Z" fill="#FF5AD1"/>
<path d="M15 5.00054C15.5604 5.00335 16.1236 4.99843 16.684 5.00054V8.31653C16.1236 8.31864 15.5604 8.31372 15 8.31653C15.0056 7.21261 15.0056 6.10447 15 5.00054Z" fill="#FF5AD1"/>
<path d="M15.004 8.31641C15.0012 8.87681 15.0061 9.44002 15.004 10.0004H11.688C11.6859 9.44002 11.6909 8.87681 11.688 8.31641C12.792 8.32203 13.9001 8.32203 15.004 8.31641Z" fill="#FF5AD1"/>
</g>
<defs>
<clipPath id="clip0_0_34">
<rect width="20" height="20" fill="white"/>
</clipPath>
</defs>
</svg>
