<svg width="22" height="22" viewBox="0 0 22 22" fill="none" xmlns="http://www.w3.org/2000/svg">
<g clip-path="url(#clip0_0_25)">
<path d="M16.5 5.5C16.4946 4.88356 16.5039 4.26403 16.5 3.64759H14.7342L14.6476 3.56096V0H7.35241V3.56096L7.26579 3.64759H5.5C5.49613 4.26403 5.50541 4.88356 5.5 5.5C4.88356 5.50541 4.26403 5.49613 3.64759 5.5V7.26579L3.56096 7.35241H1.79518V9.14681H0V10.9992H1.7944V14.6468H3.56019L3.64681 14.7334V16.4992C4.26325 16.5031 4.88279 16.4938 5.49923 16.4992C5.50464 17.1157 5.49536 17.7352 5.49923 18.3516H7.26501L7.35164 18.4383V21.9992H14.6468V18.4383L14.7334 18.3516H16.4992C16.5031 17.7352 16.4938 17.1157 16.4992 16.4992C17.1157 16.4938 17.7352 16.5031 18.3516 16.4992V14.7334L18.4383 14.6468H20.204V10.9992H21.9985V9.14681H20.204V7.35241H18.4383L18.3516 7.26579V5.5C17.7352 5.49613 17.1157 5.50541 16.4992 5.5H16.5Z" fill="white"/>
<path d="M5.50097 5.5C5.50639 4.88356 5.49711 4.26403 5.50097 3.64759H7.26676L7.35338 3.56096V0H14.6486V3.56096L14.7352 3.64759H16.501C16.5048 4.26403 16.4956 4.88356 16.501 5.5C15.9967 5.49613 15.3238 5.55878 14.8481 5.50309C14.7638 5.49304 14.6996 5.49613 14.6486 5.41337V3.64759H7.35338V5.41337C7.30234 5.49613 7.23814 5.49304 7.15383 5.50309C6.67816 5.55878 6.00526 5.49613 5.50097 5.5Z" fill="#A8A5A5"/>
<path d="M5.5 5.5002C5.49613 6.00449 5.55878 6.67739 5.50309 7.15306C5.49304 7.23737 5.49613 7.30156 5.41337 7.35261H3.64759V14.6478H5.41337C5.49613 14.6988 5.49304 14.763 5.50309 14.8473C5.55878 15.323 5.49613 15.9959 5.5 16.5002C4.88356 16.4948 4.26403 16.5041 3.64759 16.5002V14.7344L3.56096 14.6478H1.79518V11.0002H0V9.14779H1.7944V7.35338H3.56019L3.64682 7.26676V5.50097C4.26325 5.49711 4.88279 5.50639 5.49923 5.50097L5.5 5.5002Z" fill="#A8A5A5"/>
<path d="M16.495 5.49902C17.1115 5.50443 17.731 5.49515 18.3474 5.49902V7.26481L18.4341 7.35143H20.1998V9.14583H21.9942V10.9982H20.1998V14.6458H18.4341L18.3474 14.7325V16.4982C17.731 16.5021 17.1115 16.4928 16.495 16.4982C16.4989 15.994 16.4362 15.3211 16.4919 14.8454C16.502 14.7611 16.4989 14.6969 16.5817 14.6458H18.3474V7.35066H16.5817C16.4989 7.29961 16.502 7.23541 16.4919 7.15111C16.4362 6.67544 16.4989 6.00254 16.495 5.49825V5.49902Z" fill="#A8A5A5"/>
<path d="M5.50097 16.5009C6.00526 16.5048 6.67816 16.4421 7.15383 16.4978C7.23814 16.5078 7.30234 16.5048 7.35338 16.5875V18.3533H14.6486V16.5875C14.6996 16.5048 14.7638 16.5078 14.8481 16.4978C15.3238 16.4421 15.9967 16.5048 16.501 16.5009C16.4956 17.1173 16.5048 17.7369 16.501 18.3533H14.7352L14.6486 18.4399V22.0009H7.35338V18.4399L7.26676 18.3533H5.50097C5.49711 17.7369 5.50639 17.1173 5.50097 16.5009Z" fill="#A8A5A5"/>
<path d="M11.9305 6.42578V10.0734H15.5781V11.9258H10.0781V6.42578H11.9305Z" fill="#A8A5A5"/>
</g>
<defs>
<clipPath id="clip0_0_25">
<rect width="22" height="22" fill="white"/>
</clipPath>
</defs>
</svg>
