<svg width="22" height="24" viewBox="0 0 22 24" fill="none" xmlns="http://www.w3.org/2000/svg">
<path d="M4.89524 1.71317C4.30964 1.71612 3.72109 1.71096 3.13549 1.71317V3.4816H1.375V21.0002H20.625V3.4816H18.8652V1.71317C18.2796 1.71096 17.6911 1.71612 17.1055 1.71317C17.1048 1.14285 17.1062 0.57032 17.1055 0H4.89524C4.8945 0.57032 4.89597 1.14285 4.89524 1.71317Z" fill="white"/>
<path d="M4.89084 1.71317C4.89157 1.14285 4.8901 0.57032 4.89084 0H17.1011C17.1018 0.57032 17.1004 1.14285 17.1011 1.71317C13.0335 1.69328 8.95921 1.69328 4.89084 1.71317Z" fill="#A8A5A5"/>
<path d="M4.89524 1.71352C4.8945 2.30226 4.89597 2.89321 4.89524 3.48195H17.1055C17.1048 2.89321 17.1062 2.30226 17.1055 1.71352C17.6911 1.71647 18.2796 1.71131 18.8652 1.71352V3.48195H20.625V21.0005H1.375V3.48195H3.13475V1.71352C3.72036 1.71131 4.3089 1.71647 4.8945 1.71352H4.89524ZM4.89524 5.25039H3.13549V8.73199H4.89524V5.25039ZM8.35964 5.25039H6.65499V8.73199H8.35964V5.25039ZM11.8799 5.25039H10.1201V8.73199H11.8799V5.25039ZM15.345 5.25039H13.6404V8.73199H15.345V5.25039ZM18.8652 5.25039H17.1055V8.73199H18.8652V5.25039ZM18.8652 10.5004H3.13475V19.2873H4.8945V12.2689H10.1194V19.2873H18.8645V17.5189H11.8799V12.2689H18.8645V10.5004H18.8652ZM8.35964 13.982H6.65499V19.2873H8.35964V13.982ZM18.8652 15.7505V14.0646L18.783 13.982H13.6404V15.7505H18.8652Z" fill="#A8A5A5"/>
<path d="M15.346 8.7316H13.6406V5.25H15.346" fill="white"/>
</svg>
