<svg width="42" height="43" viewBox="0 0 42 43" fill="none" xmlns="http://www.w3.org/2000/svg">
<g clip-path="url(#clip0_0_48)">
<path d="M20.0335 21.2201C19.37 21.2201 17.5362 19.9258 17.1884 19.6575C10.5834 14.5718 12.4215 7.80641 17.3709 2.46521C20.362 -0.123435 21.3175 -0.557714 25.292 0.62378C29.0927 1.75418 29.6831 1.98622 31.1604 2.82072C32.393 3.51684 31.5255 4.41733 31.4997 4.44288C31.1347 4.76007 28.646 5.27312 27.9289 5.53071C23.0095 7.27208 21.7147 9.56056 21.7147 9.56056C19.0565 12.5984 19.1037 18.293 19.7822 20.4644L20.0377 21.2201H20.0335Z" fill="#FF5AD1"/>
<path d="M19.9509 21.7569C19.7447 22.3828 17.9367 23.7133 17.5739 23.956C10.6555 28.6138 4.73122 24.7884 1.13674 18.4722C-0.422154 14.8532 -0.542399 13.8164 1.81742 10.4337C4.07631 7.20006 4.47999 6.71469 5.73828 5.58003C6.78828 4.63271 7.38306 5.72905 7.39809 5.76098C7.39809 5.76098 7.39809 5.76098 7.39809 5.76311C7.5892 6.20378 7.3122 8.7094 7.33797 9.46513C7.48828 14.6403 9.28337 16.5711 9.28337 16.5711C11.3769 20.0177 16.8524 21.7314 19.1456 21.7612L19.9487 21.7548L19.9509 21.7569Z" fill="#FF5AD1"/>
<path d="M20.4406 22.0021C20.9775 22.3896 21.6946 24.5056 21.817 24.925C24.1468 32.8889 18.6477 37.2913 11.4759 38.7283C7.52286 39.0795 6.49218 38.8751 3.97562 35.601C1.57071 32.4738 1.23145 31.9416 0.531447 30.4046C-0.0526023 29.123 1.18421 28.8995 1.21856 28.8952C1.21856 28.8952 1.21856 28.8952 1.22071 28.8952C1.70384 28.8505 4.02071 29.8873 4.75292 30.0959C9.76458 31.5541 12.1695 30.4557 12.1695 30.4557C16.1226 29.5467 19.4572 24.9122 20.1959 22.76L20.4385 22L20.4406 22.0021Z" fill="#FF5AD1"/>
<path d="M20.8203 21.6196C21.3593 21.2343 23.6096 21.2109 24.0476 21.2258C32.4068 21.4898 34.9298 28.0359 34.0945 35.242C33.2099 39.0781 32.6945 39.9871 28.778 41.3474C25.0332 42.6481 24.4191 42.8056 22.7292 42.9909C21.3185 43.1463 21.4881 41.9115 21.4924 41.8775C21.4924 41.8775 21.4924 41.8775 21.4924 41.8754C21.5998 41.407 23.309 39.54 23.7363 38.9142C26.6823 34.6395 26.3752 32.0317 26.3752 32.0317C26.7252 28.0253 23.3111 23.4462 21.4731 22.0859L20.8203 21.6239V21.6196Z" fill="#FF5AD1"/>
<path d="M20.5694 21.1337C20.3654 20.5078 21.0396 18.379 21.1878 17.9681C24.0243 10.1681 31.0822 9.81051 37.7365 12.827C41.1421 14.8473 41.8549 15.6137 41.9494 19.7265C42.0396 23.6585 42.001 24.2886 41.6553 25.9384C41.3675 27.3158 40.2359 26.7751 40.2037 26.7602C40.2037 26.7602 40.2037 26.7602 40.2016 26.7602C39.785 26.5132 38.5246 24.3269 38.0565 23.7287C34.8657 19.6286 32.2697 19.1134 32.2697 19.1134C28.5335 17.5445 23.0881 19.3497 21.2135 20.6611L20.5672 21.1337H20.5694Z" fill="#FF5AD1"/>
</g>
<defs>
<clipPath id="clip0_0_48">
<rect width="42" height="43" fill="white"/>
</clipPath>
</defs>
</svg>
