<svg width="20" height="22" viewBox="0 0 20 22" fill="none" xmlns="http://www.w3.org/2000/svg">
<g clip-path="url(#clip0_0_70)">
<path d="M7.24146 3.75224C6.61519 3.75224 5.98644 3.75224 5.36018 3.75224C5.38245 6.29429 5.33295 8.83894 5.36018 11.3836C5.36018 11.4565 5.39731 11.5242 5.39731 11.5529C4.77104 11.5529 4.14229 11.5529 3.51603 11.5529C3.51603 12.1988 3.51603 12.8473 3.51603 13.4933C2.90213 13.4933 2.28577 13.4933 1.67188 13.4933V17.3741H7.18452L7.23898 17.4314V19.3145H12.7714V17.3741H18.3385V13.4933C17.7246 13.4933 17.1083 13.4933 16.4944 13.4933C16.4944 12.8473 16.4944 12.1988 16.4944 11.5529C15.8805 11.5529 15.2641 11.5529 14.6502 11.5529C14.6453 8.95354 14.6552 6.35419 14.6502 3.75485C14.024 3.75485 13.3952 3.75485 12.769 3.75485C12.769 3.10892 12.769 2.46038 12.769 1.81445H7.23651C7.23651 2.46038 7.23651 3.10892 7.23651 3.75485L7.24146 3.75224Z" fill="#FFE7F9"/>
<path d="M7.24026 3.7526C7.23531 6.33111 7.24769 8.90962 7.23531 11.4881L7.20561 11.535C6.60657 11.5663 5.99762 11.5506 5.39611 11.5506C5.39611 11.5246 5.35898 11.4543 5.35898 11.3813C5.33423 8.8393 5.38126 6.29465 5.35898 3.75C5.98525 3.75 6.61399 3.75 7.24026 3.75V3.7526Z" fill="#FF5AD1"/>
<path d="M7.24219 3.75289C7.24219 3.10696 7.24219 2.45843 7.24219 1.8125H12.7746C12.7746 2.45843 12.7746 3.10696 12.7746 3.75289C10.9305 3.74768 9.08634 3.74768 7.24219 3.75289Z" fill="#FF5AD1"/>
<path d="M12.7742 3.75195C13.4005 3.75195 14.0292 3.75195 14.6555 3.75195C14.6579 6.3513 14.6505 8.95064 14.6555 11.55C14.0416 11.55 13.4203 11.5656 12.8088 11.5344L12.7791 11.4875C12.7668 8.90897 12.7791 6.33046 12.7742 3.75195Z" fill="#FF5AD1"/>
<path d="M5.39691 11.5514C5.40186 12.0776 5.45632 12.8641 5.39691 13.359C5.39196 13.4007 5.39691 13.4475 5.36225 13.4736C4.74836 13.5048 4.12952 13.4892 3.51562 13.4892C3.51562 12.8433 3.51562 12.1948 3.51562 11.5488C4.14189 11.5488 4.77064 11.5488 5.39691 11.5488V11.5514Z" fill="#FF5AD1"/>
<path d="M14.6562 11.5508C15.2701 11.5508 15.8865 11.5508 16.5004 11.5508C16.5004 12.1967 16.5004 12.8452 16.5004 13.4912C15.8865 13.4912 15.2701 13.4912 14.6562 13.4912C14.6562 12.8452 14.6562 12.1967 14.6562 11.5508Z" fill="#FF5AD1"/>
<path d="M3.51603 13.4922V15.4326H16.4944V13.4922C17.1083 13.4922 17.7246 13.4922 18.3385 13.4922V17.373H12.7714V19.3134H7.23898V17.4303L7.18452 17.373H1.67188V13.4922C2.28577 13.4922 2.90213 13.4922 3.51603 13.4922Z" fill="#FF5AD1"/>
<path d="M12.774 11.5509H10.9298V13.4913H12.774V11.5509Z" fill="#FF5AD1"/>
</g>
<defs>
<clipPath id="clip0_0_70">
<rect width="16.6667" height="17.5" fill="white" transform="translate(1.67188 1.8125)"/>
</clipPath>
</defs>
</svg>
