<svg width="17" height="17" viewBox="0 0 17 17" fill="none" xmlns="http://www.w3.org/2000/svg">
<path d="M14.2745 10.1679C13.8316 11.3579 13.8581 12.7798 14.7561 13.6775L15.9654 14.8866C16.2701 15.1912 16.2701 15.685 15.9655 15.9896C15.6609 16.2941 15.1671 16.2941 14.8626 15.9895L13.6535 14.7801C12.7557 13.8822 11.3339 13.8557 10.1439 14.2986C9.36675 14.5878 8.53874 14.7385 7.69761 14.7373C3.825 14.7373 0.682007 11.5943 0.682007 7.72166C0.682007 3.84905 3.825 0.706055 7.69761 0.706055C11.5702 0.706055 14.7132 3.84905 14.7132 7.72166C14.7144 8.56279 14.5638 9.39079 14.2745 10.1679ZM11.6147 11.5218C12.6037 10.5043 13.1562 9.14066 13.1542 7.72166C13.1542 4.70729 10.712 2.26508 7.69761 2.26508C4.68324 2.26508 2.24103 4.70729 2.24103 7.72166C2.24103 10.736 4.68324 13.1782 7.69761 13.1782C9.11661 13.1802 10.4802 12.6278 11.4977 11.6387L11.6147 11.5218Z" fill="#525252"/>
</svg>
