<svg width="20" height="16" viewBox="0 0 20 16" fill="none" xmlns="http://www.w3.org/2000/svg">
<path fill-rule="evenodd" clip-rule="evenodd" d="M1.21267 6.02597H16.3829C16.5727 6.02597 16.7467 6.10589 16.8891 6.24975L19.2935 8.74326C19.7365 9.20679 19.4201 9.99001 18.7873 9.99001H3.61713C3.4273 9.99001 3.25329 9.91009 3.11092 9.76623L0.706472 7.27273C0.263546 6.80919 0.579921 6.02597 1.21267 6.02597ZM0.706472 2.71728L3.11092 0.223776C3.23748 0.0799202 3.4273 0 3.61713 0H18.7715C19.4043 0 19.7206 0.783217 19.2777 1.24675L16.8891 3.74026C16.7625 3.88412 16.5727 3.96404 16.3829 3.96404H1.21267C0.579921 3.96404 0.263546 3.18082 0.706472 2.71728ZM19.2777 13.2827L16.8733 15.7762C16.7309 15.9201 16.5569 16 16.3671 16H1.21267C0.579921 16 0.263546 15.2168 0.706472 14.7532L3.11092 12.2597C3.23748 12.1159 3.4273 12.036 3.61713 12.036H18.7715C19.4043 12.036 19.7206 12.8192 19.2777 13.2827Z" fill="#FFB9EC"/>
</svg>
